<?xml version="1.0"?>
<svg xmlns="http://www.w3.org/2000/svg" id="Capa_1" enable-background="new 0 0 512 512" height="512px" viewBox="0 0 512 512" width="512px"><g><path d="m15 182c-8.284 0-15 6.716-15 15s6.716 15 15 15h15v30h90v-30h15c8.284 0 15-6.716 15-15s-6.716-15-15-15h-45v-33.509c34.192-6.968 60-37.271 60-73.491 0-41.355-33.645-75-75-75s-75 33.645-75 75c0 36.219 25.808 66.522 60 73.491v33.509z" data-original="#000000" class="active-path" data-old_color="#000000" fill="#FFFFFF"/><path d="m497 182h-45v-33.509c34.192-6.968 60-37.271 60-73.491 0-41.355-33.645-75-75-75s-75 33.645-75 75c0 36.219 25.808 66.522 60 73.491v33.509h-45c-8.284 0-15 6.716-15 15s6.716 15 15 15h15v30h90v-30h15c8.284 0 15-6.716 15-15s-6.716-15-15-15z" data-original="#000000" class="active-path" data-old_color="#000000" fill="#FFFFFF"/><path d="m497 482h-15v-210c-23.204 0-65.01 0-103.86 0-31.68 39.83-72.67 60-122.14 60-49.6 0-90.62-20.17-122.2-60-38.704 0-80.357 0-103.8 0v210h-15c-8.284 0-15 6.716-15 15s6.716 15 15 15h120c8.284 0 15-6.716 15-15s-6.716-15-15-15h-15v-179.72c34.66 37.716 80.41 59.72 136 59.72 54.781 0 100.794-21.596 136-59.9v179.9h-15c-8.284 0-15 6.716-15 15s6.716 15 15 15h120c8.284 0 15-6.716 15-15s-6.716-15-15-15z" data-original="#000000" class="active-path" data-old_color="#000000" fill="#FFFFFF"/></g> </svg>
